<?xml version="1.0" encoding="UTF-8" standalone="no"?>
<svg
   xmlns:dc="http://purl.org/dc/elements/1.1/"
   xmlns:cc="http://creativecommons.org/ns#"
   xmlns:rdf="http://www.w3.org/1999/02/22-rdf-syntax-ns#"
   xmlns:svg="http://www.w3.org/2000/svg"
   xmlns="http://www.w3.org/2000/svg"
   xmlns:sodipodi="http://sodipodi.sourceforge.net/DTD/sodipodi-0.dtd"
   xmlns:inkscape="http://www.inkscape.org/namespaces/inkscape"
   inkscape:version="1.0 (4035a4fb49, 2020-05-01)"
   height="68.68"
   width="288"
   sodipodi:docname="logo-gafisa.svg"
   xml:space="preserve"
   viewBox="0 0 288 68.68"
   y="0px"
   x="0px"
   id="Camada_1"
   version="1.1"><metadata
   id="metadata23"><rdf:RDF><cc:Work
       rdf:about=""><dc:format>image/svg+xml</dc:format><dc:type
         rdf:resource="http://purl.org/dc/dcmitype/StillImage" /><dc:title></dc:title></cc:Work></rdf:RDF></metadata><defs
   id="defs21" /><sodipodi:namedview
   inkscape:current-layer="Camada_1"
   inkscape:window-maximized="1"
   inkscape:window-y="-8"
   inkscape:window-x="-8"
   inkscape:cy="15.632353"
   inkscape:cx="144"
   inkscape:zoom="2.8333333"
   fit-margin-bottom="0"
   fit-margin-right="0"
   fit-margin-left="0"
   fit-margin-top="0"
   showgrid="false"
   id="namedview19"
   inkscape:window-height="1017"
   inkscape:window-width="1920"
   inkscape:pageshadow="2"
   inkscape:pageopacity="0"
   guidetolerance="10"
   gridtolerance="10"
   objecttolerance="10"
   borderopacity="1"
   bordercolor="#666666"
   pagecolor="#ffffff" />
<style
   id="style2"
   type="text/css">
	.st0{fill:#80003B;}
</style>
<polyline
   transform="translate(-6,-120.25)"
   id="polyline4"
   points="54.77,160.61 63.54,175.74 26.27,175.74 51.65,131.88 44.91,120.25 6,187.44 83.82,187.44   54.79,137.31 35.69,170.29 49.18,170.29 54.78,160.61 "
   class="st0" />
<path
   id="path6"
   d="m 126.67,25 c -4.34,-1.82 -12.96,-2.5 -17.47,-2.5 -13.1,0 -19.76,7.74 -19.76,18.16 0,10.35 7.08,18.14 19.06,18.14 3.05,0 5.47,-0.29 7.4,-0.73 V 47.05 h -7.17 v -8.01 h 17.96 v 27.6 c -5.95,1.46 -12.59,2.04 -18.62,2.04 -18.18,0 -29.87,-12.12 -30.17,-24.91 -0.41,-17.4 11.63,-31.46 31.13,-31.98 6.51,-0.18 12.66,1.12 17.49,2.43 z" />
<path
   id="path8"
   d="m 175.95,36.77 h -3.79 v -7.13 h 3.79 v -5.25 c 0,-7.5 4.64,-12.94 13.17,-12.94 2.73,0 0,0 7.98,0.27 v 8.58 c -1.27,-0.07 -3.68,-0.07 -6.01,-0.07 -3.62,0 -4.36,1.83 -4.36,4.75 v 4.66 h 9.41 v 7.13 h -9.41 v 30.39 h -10.78 z" />
<path
   id="path10"
   d="m 201.6,29.49 h 10.77 V 67.16 H 201.6 Z m 0,-9.15 h 10.77 V 26.1 H 201.6 Z" />
<path
   id="path12"
   d="m 244.78,37.94 c -3.3,-1.02 -5.41,-2.05 -9.35,-2.05 -2.9,0 -6.36,0.95 -6.36,4.16 0,5.97 18.73,2.19 18.73,15.74 0,8.73 -8.61,12.23 -17.37,12.23 -4.1,0 -8.28,-0.65 -12.22,-1.6 l 0.09,-8.01 c 3.37,1.52 7.47,2.47 11.16,2.47 2.74,0 7.08,-0.95 7.08,-4.59 0,-7.35 -18.74,-2.33 -18.74,-15.88 0,-8.09 7.8,-11.65 16.24,-11.65 5.07,0 7.4,0.73 10.77,1.38 z" />
<path
   id="path14"
   d="m 268.23,60.88 c 3.3,0 5.86,-1.31 7.56,-3.35 1.77,-2.11 2.25,-4.8 2.25,-7.72 h -4.66 c -4.83,0 -11.99,0.73 -11.99,6.48 0,3.21 2.97,4.59 6.84,4.59 M 258.02,31.16 c 4.19,-1.74 7.39,-2.4 11.97,-2.4 12.62,0 17.85,4.73 17.85,15.81 v 4.8 c 0,3.79 0.16,6.63 0.16,9.4 0,3.12 -0.01,5.03 -0.01,8.38 h -9.47 c 0.05,-2.38 0.09,-4.45 0.01,-5.62 h -0.16 c -2.49,4.16 -7.88,6.48 -12.79,6.48 -7.31,0 -14.47,-4.01 -14.47,-11.15 0,-5.61 2.98,-8.88 7.07,-10.7 4.11,-1.82 9.41,-2.19 13.91,-2.19 h 5.95 c 0,-6.05 -2.98,-8.09 -9.33,-8.09 -4.58,0 -7.04,0.73 -10.66,3.2 z" />
<path
   id="path16"
   d="m 148.27,60.88 c 3.3,0 5.87,-1.31 7.57,-3.35 1.77,-2.11 2.25,-4.8 2.25,-7.72 h -4.66 c -4.83,0 -11.99,0.73 -11.99,6.48 -0.01,3.21 2.98,4.59 6.83,4.59 m -10.2,-29.72 c 4.19,-1.74 7.39,-2.4 11.97,-2.4 12.63,0 17.85,4.73 17.85,15.81 v 4.8 c 0,3.79 0.08,6.63 0.16,9.4 0.08,2.85 -0.1,5.17 0,8.38 h -9.49 c 0.04,-2.38 0.08,-4.45 0,-5.62 h -0.16 c -2.5,4.16 -7.88,6.48 -12.78,6.48 -7.32,0 -14.48,-4.01 -14.48,-11.15 0,-5.61 2.98,-8.88 7.07,-10.7 4.11,-1.82 9.41,-2.19 13.91,-2.19 h 5.95 c 0,-6.05 -2.98,-8.09 -9.32,-8.09 -4.59,0 -7.05,0.73 -10.66,3.2 z" />
</svg>
